<?xml version="1.0" encoding="UTF-8" standalone="no"?>
<!DOCTYPE svg PUBLIC "-//W3C//DTD SVG 1.1//EN" "http://www.w3.org/Graphics/SVG/1.1/DTD/svg11.dtd">
<svg width="100%" height="100%" viewBox="0 0 1982 1134" version="1.1" xmlns="http://www.w3.org/2000/svg" xmlns:xlink="http://www.w3.org/1999/xlink" xml:space="preserve" xmlns:serif="http://www.serif.com/" style="fill-rule:evenodd;clip-rule:evenodd;stroke-linejoin:round;stroke-miterlimit:2;">
    <g transform="matrix(1,0,0,1,-5.95827,-404.332)">
        <g transform="matrix(2.0456,0,0,2.0456,-1048.66,-1074.33)">
            <g transform="matrix(1,0,0,1,949.84,1037.95)">
                <path d="M0,67.48L53.508,67.48L71.916,0L0,0L0,67.48Z" style="fill:rgb(25,22,17);fill-rule:nonzero;"/>
            </g>
        </g>
        <g transform="matrix(2.0456,0,0,2.0456,-1048.66,-1074.33)">
            <g transform="matrix(0,1,1,0,1056.31,860.755)">
                <path d="M10.827,-106.472L106.472,-106.472L106.472,-15.264L10.827,10.827L10.827,-106.472Z" style="fill:rgb(25,22,17);fill-rule:nonzero;"/>
            </g>
        </g>
        <g transform="matrix(2.0456,0,0,2.0456,-1048.66,-1074.33)">
            <g transform="matrix(1,0,0,1,1169.49,1105.43)">
                <path d="M0,-382.578L-344.232,-382.578C-354.819,-382.578 -363.405,-373.991 -363.405,-363.405L-363.405,-19.173C-363.405,-8.586 -354.819,0 -344.232,0L-297.905,0L-297.905,-230.177C-297.905,-271.26 -264.6,-304.563 -223.517,-304.563L19.174,-304.563L19.174,-363.405C19.174,-373.991 10.586,-382.578 0,-382.578" style="fill:rgb(25,22,17);fill-rule:nonzero;"/>
            </g>
        </g>
        <g transform="matrix(2.0456,0,0,2.0456,-1048.66,-1074.33)">
            <g transform="matrix(1,0,0,1,1104.82,977.525)">
                <path d="M0,21.96C0,13.101 6.044,5.674 14.228,3.522L44.088,-105.942L22.347,-105.942L-41.443,127.902L-19.703,127.902L5.533,35.394C2.115,31.944 0,27.2 0,21.96" style="fill:rgb(25,22,17);fill-rule:nonzero;"/>
            </g>
        </g>
        <g transform="matrix(2.0456,0,0,2.0456,-1048.66,-1074.33)">
            <g transform="matrix(1,0,0,1,1135.42,992.722)">
                <path d="M0,-8.435C4.593,-4.95 7.573,0.551 7.573,6.762C7.573,16.559 0.189,24.622 -9.315,25.713L-33.045,112.705L34.071,112.705C44.657,112.705 53.245,104.119 53.245,93.532L53.245,-121.14L30.745,-121.14L0,-8.435Z" style="fill:rgb(25,22,17);fill-rule:nonzero;"/>
            </g>
        </g>
        <g transform="matrix(2.0456,0,0,2.0456,-1048.66,-1074.33)">
            <g transform="matrix(1,0,0,1,1067.14,1105.43)">
                <path d="M0,-233.845L-26.091,-138.2L-45.384,-67.481L-63.792,0L-3.767,0L60.023,-233.845L0,-233.845Z" style="fill:rgb(35,221,29);fill-rule:nonzero;"/>
            </g>
        </g>
        <g transform="matrix(2.0456,0,0,2.0456,-1048.66,-1074.33)">
            <g transform="matrix(1,0,0,1,1128.55,967.565)">
                <path d="M0,41.88C-1.415,42.542 -2.986,42.923 -4.652,42.923C-9.775,42.923 -14.068,39.416 -15.292,34.675C-15.521,33.793 -15.654,32.873 -15.654,31.92C-15.654,28.873 -14.416,26.117 -12.415,24.124C-10.425,22.143 -7.682,20.918 -4.652,20.918C-0.888,20.918 2.432,22.811 4.416,25.693C5.634,27.465 6.351,29.608 6.351,31.92C6.351,36.332 3.748,40.126 0,41.88M6.862,16.723L37.607,-95.982L20.35,-95.982L-9.511,13.482C-17.695,15.634 -23.739,23.061 -23.739,31.92C-23.739,37.16 -21.624,41.904 -18.206,45.354L-43.442,137.862L-26.183,137.862L-2.453,50.871C7.052,49.779 14.436,41.717 14.436,31.92C14.436,25.709 11.456,20.208 6.862,16.723" style="fill:rgb(35,221,29);fill-rule:nonzero;"/>
            </g>
        </g>
        <g transform="matrix(2.0456,0,0,2.0456,-1048.66,-1074.33)">
            <g transform="matrix(1,0,0,1,515.554,1146.06)">
                <path d="M0,128.698L0,0L76.024,0L76.024,22.43L22.43,22.43L22.43,48.537L67.199,48.537L67.199,70.968L22.43,70.968L22.43,128.698L0,128.698Z" style="fill:rgb(25,22,17);fill-rule:nonzero;"/>
            </g>
        </g>
        <g transform="matrix(2.0456,0,0,2.0456,-1048.66,-1074.33)">
            <g transform="matrix(1,0,0,1,674.402,1146.06)">
                <path d="M0,131.089C-10.296,131.089 -19.32,128.576 -27.073,123.55C-34.826,118.526 -40.846,111.77 -45.136,103.28C-49.426,94.792 -51.571,85.37 -51.571,75.013L-51.571,0L-29.141,0L-29.141,75.013C-29.141,81.142 -27.992,86.765 -25.694,91.881C-23.396,96.999 -20.086,101.074 -15.765,104.108C-11.445,107.142 -6.191,108.658 0,108.658C6.25,108.658 11.521,107.142 15.813,104.108C20.1,101.074 23.365,96.999 25.602,91.881C27.839,86.765 28.957,81.142 28.957,75.013L28.957,0L51.387,0L51.387,75.013C51.387,82.797 50.161,90.074 47.709,96.845C45.258,103.617 41.766,109.577 37.23,114.726C32.695,119.873 27.288,123.888 21.006,126.768C14.722,129.648 7.722,131.089 0,131.089" style="fill:rgb(25,22,17);fill-rule:nonzero;"/>
            </g>
        </g>
        <g transform="matrix(2.0456,0,0,2.0456,-1048.66,-1074.33)">
            <g transform="matrix(1,0,0,1,812.567,1143.86)">
                <path d="M0,133.295C-7.109,133.295 -13.927,132.175 -20.454,129.939C-26.979,127.702 -32.695,124.485 -37.598,120.286C-42.5,116.09 -46.024,111.048 -48.169,105.165L-27.119,97.442C-26.26,99.895 -24.514,102.131 -21.878,104.153C-19.244,106.175 -16.026,107.801 -12.226,109.025C-8.427,110.252 -4.351,110.864 0,110.864C4.475,110.864 8.656,110.175 12.549,108.796C16.44,107.417 19.582,105.486 21.972,103.004C24.362,100.523 25.557,97.627 25.557,94.317C25.557,90.947 24.299,88.174 21.787,85.998C19.273,83.823 16.056,82.091 12.135,80.804C8.212,79.517 4.168,78.537 0,77.861C-9.132,76.453 -17.313,74.277 -24.543,71.336C-31.776,68.395 -37.492,64.318 -41.689,59.109C-45.887,53.901 -47.984,47.158 -47.984,38.886C-47.984,31.103 -45.75,24.3 -41.275,18.477C-36.802,12.656 -30.919,8.121 -23.624,4.871C-16.333,1.625 -8.456,0 0,0C7.047,0 13.85,1.104 20.408,3.309C26.965,5.516 32.71,8.733 37.645,12.961C42.577,17.191 46.116,22.277 48.263,28.222L27.12,35.852C26.26,33.401 24.514,31.163 21.879,29.141C19.244,27.118 16.026,25.51 12.227,24.315C8.426,23.119 4.351,22.523 0,22.523C-4.351,22.461 -8.472,23.15 -12.363,24.591C-16.256,26.031 -19.429,27.977 -21.878,30.428C-24.329,32.88 -25.555,35.699 -25.555,38.886C-25.555,42.991 -24.406,46.087 -22.108,48.169C-19.81,50.253 -16.729,51.771 -12.87,52.721C-9.008,53.671 -4.718,54.544 0,55.34C8.58,56.69 16.515,58.957 23.811,62.143C31.102,65.33 36.955,69.574 41.369,74.874C45.78,80.176 47.986,86.656 47.986,94.317C47.986,102.101 45.78,108.919 41.369,114.771C36.955,120.624 31.102,125.175 23.811,128.422C16.515,131.67 8.58,133.295 0,133.295" style="fill:rgb(25,22,17);fill-rule:nonzero;"/>
            </g>
        </g>
        <g transform="matrix(2.0456,0,0,2.0456,-1048.66,-1074.33)">
            <g transform="matrix(1,0,0,1,900.449,1146.06)">
                <path d="M0,128.698L0,0L80.713,0L80.713,22.43L22.43,22.43L22.43,48.537L68.67,48.537L68.67,70.968L22.43,70.968L22.43,106.267L80.713,106.267L80.713,128.698L0,128.698Z" style="fill:rgb(25,22,17);fill-rule:nonzero;"/>
            </g>
        </g>
        <g transform="matrix(2.0456,0,0,2.0456,-1048.66,-1074.33)">
            <g transform="matrix(1,0,0,1,1068.72,1163.39)">
                <path d="M0,113.402C-7.393,113.402 -14.345,111.929 -20.852,108.989C-27.362,106.048 -33.074,101.986 -37.994,96.804C-42.915,91.625 -46.769,85.597 -49.554,78.725C-52.339,71.852 -53.731,64.51 -53.731,56.701C-53.731,48.891 -52.339,41.549 -49.554,34.676C-46.769,27.804 -42.915,21.778 -37.994,16.596C-33.074,11.417 -27.362,7.355 -20.852,4.413C-14.345,1.471 -7.393,0 0,0C8.851,0 17,2.057 24.447,6.17C31.892,10.284 38.062,15.751 42.956,22.571L31.318,28.819C27.674,24.03 23.08,20.216 17.535,17.378C11.99,14.541 6.145,13.121 0,13.121C-5.674,13.121 -10.972,14.266 -15.893,16.557C-20.813,18.849 -25.123,21.999 -28.817,26.007C-32.516,30.017 -35.405,34.651 -37.487,39.91C-39.569,45.169 -40.61,50.765 -40.61,56.701C-40.61,62.689 -39.558,68.311 -37.448,73.57C-35.338,78.83 -32.423,83.464 -28.701,87.471C-24.979,91.482 -20.656,94.619 -15.735,96.883C-10.817,99.148 -5.57,100.281 0,100.281C6.353,100.281 12.249,98.836 17.69,95.945C23.131,93.056 27.674,89.268 31.318,84.583L42.956,90.908C38.062,97.73 31.892,103.183 24.447,107.27C17,111.359 8.851,113.402 0,113.402" style="fill:rgb(35,221,29);fill-rule:nonzero;"/>
            </g>
        </g>
        <g transform="matrix(2.0456,0,0,2.0456,-1048.66,-1074.33)">
            <g transform="matrix(1,0,0,1,1199.69,1176.51)">
                <path d="M0,87.16C5.675,87.16 10.973,86.014 15.893,83.723C20.813,81.432 25.135,78.269 28.859,74.234C32.579,70.199 35.496,65.564 37.605,60.332C39.713,55.099 40.768,49.514 40.768,43.58C40.768,37.644 39.7,32.034 37.566,26.749C35.431,21.466 32.502,16.831 28.78,12.847C25.056,8.864 20.735,5.728 15.814,3.436C10.896,1.145 5.624,0 0,0C-5.676,0 -10.974,1.145 -15.893,3.436C-20.813,5.728 -25.136,8.891 -28.858,12.925C-32.581,16.962 -35.496,21.595 -37.605,26.827C-39.715,32.059 -40.768,37.644 -40.768,43.58C-40.768,49.568 -39.701,55.19 -37.566,60.449C-35.433,65.709 -32.502,70.343 -28.78,74.35C-25.058,78.361 -20.736,81.498 -15.816,83.763C-10.896,86.027 -5.624,87.16 0,87.16M0,100.281C-7.393,100.281 -14.345,98.808 -20.852,95.868C-27.362,92.927 -33.089,88.851 -38.035,83.644C-42.981,78.439 -46.861,72.412 -49.671,65.564C-52.482,58.72 -53.889,51.389 -53.889,43.58C-53.889,35.77 -52.482,28.441 -49.671,21.595C-46.861,14.749 -42.981,8.722 -38.035,3.514C-33.089,-1.692 -27.362,-5.766 -20.852,-8.708C-14.345,-11.65 -7.393,-13.121 0,-13.121C7.445,-13.121 14.422,-11.65 20.931,-8.708C27.438,-5.766 33.167,-1.692 38.112,3.514C43.058,8.722 46.924,14.749 49.711,21.595C52.495,28.441 53.889,35.77 53.889,43.58C53.889,51.389 52.495,58.72 49.711,65.564C46.924,72.412 43.058,78.439 38.112,83.644C33.167,88.851 27.438,92.927 20.931,95.868C14.422,98.808 7.445,100.281 0,100.281" style="fill:rgb(35,221,29);fill-rule:nonzero;"/>
            </g>
        </g>
        <g transform="matrix(2.0456,0,0,2.0456,-1048.66,-1074.33)">
            <g transform="matrix(1,0,0,1,1303.96,1178.54)">
                <path d="M0,83.098L23.041,83.098C28.766,83.098 34.143,82.019 39.167,79.857C44.191,77.697 48.603,74.715 52.406,70.914C56.205,67.115 59.187,62.702 61.347,57.676C63.508,52.653 64.588,47.277 64.588,41.549C64.588,35.823 63.508,30.447 61.347,25.422C59.187,20.397 56.193,15.985 52.367,12.184C48.54,8.383 44.126,5.403 39.127,3.241C34.13,1.08 28.766,-0.001 23.041,-0.001L0,-0.001L0,83.098ZM-13.121,96.219L-13.121,-13.121L23.041,-13.121C30.589,-13.121 37.67,-11.702 44.284,-8.865C50.896,-6.026 56.702,-2.095 61.699,2.928C66.698,7.953 70.614,13.759 73.453,20.345C76.291,26.932 77.709,33.999 77.709,41.549C77.709,49.099 76.291,56.167 73.453,62.753C70.614,69.34 66.698,75.146 61.699,80.169C56.702,85.195 50.896,89.125 44.284,91.962C37.67,94.801 30.589,96.219 23.041,96.219L-13.121,96.219Z" style="fill:rgb(35,221,29);fill-rule:nonzero;"/>
            </g>
        </g>
        <g transform="matrix(2.0456,0,0,2.0456,-1048.66,-1074.33)">
            <g transform="matrix(1,0,0,1,1417.36,1165.42)">
                <path d="M0,109.34L0,0L67.089,0L67.089,13.12L13.121,13.12L13.121,44.204L57.327,44.204L57.327,57.325L13.121,57.325L13.121,96.219L67.089,96.219L67.089,109.34L0,109.34Z" style="fill:rgb(35,221,29);fill-rule:nonzero;"/>
            </g>
        </g>
    </g>
</svg>
