<?xml version="1.0" encoding="UTF-8" standalone="no"?><!DOCTYPE svg PUBLIC "-//W3C//DTD SVG 1.1//EN" "http://www.w3.org/Graphics/SVG/1.1/DTD/svg11.dtd"><svg width="100%" height="100%" viewBox="0 0 4038 2310" version="1.1" xmlns="http://www.w3.org/2000/svg" xmlns:xlink="http://www.w3.org/1999/xlink" xml:space="preserve" xmlns:serif="http://www.serif.com/" style="fill-rule:evenodd;clip-rule:evenodd;stroke-linejoin:round;stroke-miterlimit:2;"><rect id="Page-1" serif:id="Page 1" x="-2148.14" y="-3011.87" width="8333.33" height="8333.33" style="fill:none;"/><g id="Page-11" serif:id="Page 1"><g id="Layer-1" serif:id="Layer 1"><path d="M1809.53,1594.08l222.95,-0l76.7,-281.167l-299.65,0l0,281.167Z" style="fill:#fff;fill-rule:nonzero;"/><path d="M1809.53,619.722l0,398.521l380.034,0l108.712,-398.521l-488.746,0Z" style="fill:#fff;fill-rule:nonzero;"/><path d="M2724.72,-0l-1434.3,-0c-44.112,-0 -79.887,35.779 -79.887,79.887l-0,1434.3c-0,44.113 35.775,79.888 79.887,79.888l193.03,0l-0,-959.071c-0,-171.179 138.77,-309.942 309.95,-309.942l1011.21,0l0,-245.174c0,-44.109 -35.783,-79.888 -79.892,-79.888" style="fill:#fff;fill-rule:nonzero;"/><path d="M2455.26,1152.65c0,-36.913 25.183,-67.859 59.283,-76.825l124.417,-456.1l-90.587,-0l-265.792,974.35l90.583,-0l105.15,-385.45c-14.241,-14.375 -23.054,-34.142 -23.054,-55.975" style="fill:#fff;fill-rule:nonzero;"/><path d="M2582.76,1089.33c19.137,14.52 31.554,37.441 31.554,63.32c-0,40.821 -30.767,74.417 -70.367,78.963l-98.875,362.467l279.65,-0c44.109,-0 79.892,-35.775 79.892,-79.888l-0,-894.467l-93.75,0l-128.104,469.605Z" style="fill:#fff;fill-rule:nonzero;"/><path d="M2298.27,619.722l-108.713,398.521l-80.387,294.663l-76.7,281.171l250.104,-0l265.791,-974.355l-250.095,0Z" style="fill:#23dd1d;fill-rule:nonzero;"/><path d="M2554.17,1194.15c-5.896,2.759 -12.442,4.346 -19.384,4.346c-21.345,0 -39.233,-14.612 -44.333,-34.367c-0.954,-3.675 -1.508,-7.508 -1.508,-11.479c-0,-12.696 5.158,-24.179 13.496,-32.483c8.291,-8.254 19.72,-13.358 32.345,-13.358c15.684,-0 29.517,7.887 37.784,19.895c5.075,7.384 8.062,16.313 8.062,25.946c0,18.384 -10.846,34.192 -26.462,41.5m28.591,-104.821l128.105,-469.604l-71.905,0l-124.42,456.1c-34.1,8.967 -59.284,39.913 -59.284,76.825c0,21.834 8.813,41.6 23.054,55.975l-105.15,385.45l71.913,0l98.875,-362.462c39.604,-4.55 70.371,-38.142 70.371,-78.963c-0,-25.879 -12.417,-48.8 -31.559,-63.321" style="fill:#23dd1d;fill-rule:nonzero;"/><path d="M0,2299.63l0,-536.241l316.767,-0l-0,93.458l-223.309,-0l0,108.779l186.538,0l-0,93.463l-186.538,-0l0,240.541l-93.458,0Z" style="fill:#fff;fill-rule:nonzero;"/><path d="M661.867,2309.6c-42.9,-0 -80.5,-10.471 -112.804,-31.413c-32.304,-20.933 -57.388,-49.083 -75.263,-84.458c-17.875,-35.367 -26.812,-74.625 -26.812,-117.779l-0,-312.555l93.458,0l0,312.555c0,25.537 4.788,48.966 14.363,70.283c9.575,21.325 23.366,38.304 41.371,50.946c18,12.641 39.891,18.958 65.687,18.958c26.042,0 48.004,-6.317 65.888,-18.958c17.862,-12.642 31.466,-29.621 40.787,-50.946c9.321,-21.317 13.979,-44.746 13.979,-70.283l0,-312.555l93.459,0l-0,312.555c-0,32.433 -5.109,62.754 -15.325,90.966c-10.213,28.217 -24.763,53.05 -43.663,74.504c-18.896,21.446 -41.425,38.175 -67.6,50.175c-26.183,12 -55.35,18.005 -87.525,18.005" style="fill:#fff;fill-rule:nonzero;"/><path d="M1237.56,2309.6c-29.621,-0 -58.029,-4.667 -85.225,-13.984c-27.188,-9.321 -51.004,-22.725 -71.433,-40.221c-20.425,-17.483 -35.109,-38.491 -44.046,-63.004l87.708,-32.179c3.579,10.221 10.854,19.538 21.838,27.963c10.975,8.425 24.383,15.2 40.216,20.3c15.829,5.112 32.813,7.662 50.942,7.662c18.646,0 36.067,-2.871 52.287,-8.617c16.213,-5.745 29.305,-13.791 39.263,-24.133c9.958,-10.337 14.937,-22.404 14.937,-36.196c0,-14.041 -5.241,-25.596 -15.708,-34.662c-10.475,-9.063 -23.879,-16.279 -40.216,-21.642c-16.346,-5.362 -33.196,-9.446 -50.563,-12.262c-38.05,-5.867 -72.138,-14.934 -102.263,-27.188c-30.137,-12.254 -53.954,-29.242 -71.441,-50.946c-17.492,-21.7 -26.229,-49.796 -26.229,-84.262c-0,-32.429 9.308,-60.775 27.954,-85.038c18.637,-24.254 43.15,-43.15 73.546,-56.691c30.379,-13.525 63.2,-20.296 98.433,-20.296c29.362,-0 57.708,4.6 85.033,13.787c27.321,9.196 51.259,22.6 71.821,40.217c20.55,17.625 35.296,38.817 44.242,63.587l-88.096,31.792c-3.583,-10.212 -10.858,-19.537 -21.837,-27.962c-10.98,-8.43 -24.388,-15.13 -40.217,-20.109c-15.838,-4.983 -32.817,-7.466 -50.946,-7.466c-18.129,-0.259 -35.3,2.612 -51.512,8.616c-16.221,6 -29.442,14.109 -39.646,24.321c-10.213,10.217 -15.321,21.963 -15.321,35.242c-0,17.104 4.787,30.004 14.362,38.679c9.575,8.683 22.413,15.008 38.492,18.967c16.092,3.958 33.967,7.595 53.625,10.912c35.75,5.625 68.813,15.071 99.213,28.346c30.379,13.279 54.766,30.962 73.158,53.046c18.379,22.091 27.571,49.091 27.571,81.012c-0,32.434 -9.192,60.842 -27.571,85.225c-18.392,24.388 -42.779,43.35 -73.158,56.879c-30.4,13.534 -63.463,20.305 -99.213,20.305" style="fill:#fff;fill-rule:nonzero;"/><path d="M1603.73,2299.63l0,-536.241l336.304,-0l0,93.458l-242.846,-0l0,108.779l192.667,0l0,93.463l-192.667,-0l0,147.079l242.846,-0l0,93.462l-336.304,0Z" style="fill:#fff;fill-rule:nonzero;"/><path d="M2304.85,2308.1c-30.804,0 -59.77,-6.137 -86.883,-18.387c-27.125,-12.255 -50.925,-29.18 -71.425,-50.771c-20.504,-21.579 -36.562,-46.696 -48.167,-75.329c-11.604,-28.638 -17.404,-59.23 -17.404,-91.767c0,-32.542 5.8,-63.133 17.404,-91.771c11.605,-28.633 27.663,-53.742 48.167,-75.333c20.5,-21.579 44.3,-38.504 71.425,-50.763c27.113,-12.258 56.079,-18.387 86.883,-18.387c36.88,-0 70.834,8.571 101.863,25.708c31.021,17.142 56.729,39.921 77.121,68.338l-48.492,26.033c-15.183,-19.954 -34.325,-35.846 -57.429,-47.671c-23.104,-11.821 -47.458,-17.737 -73.063,-17.737c-23.641,-0 -45.716,4.77 -66.22,14.316c-20.5,9.55 -38.459,22.675 -53.85,39.375c-15.413,16.709 -27.45,36.017 -36.125,57.929c-8.675,21.913 -13.013,45.23 -13.013,69.963c0,24.95 4.383,48.375 13.175,70.287c8.792,21.917 20.938,41.225 36.446,57.921c15.508,16.713 33.521,29.784 54.025,39.217c20.492,9.437 42.354,14.158 65.562,14.158c26.471,0 51.038,-6.021 73.709,-18.066c22.671,-12.038 41.6,-27.821 56.783,-47.342l48.492,26.354c-20.392,28.425 -46.1,51.146 -77.121,68.175c-31.029,17.038 -64.983,25.55 -101.863,25.55" style="fill:#23dd1d;fill-rule:nonzero;"/><path d="M2850.58,2253.43c23.646,-0 45.721,-4.775 66.221,-14.321c20.5,-9.546 38.508,-22.725 54.025,-39.538c15.5,-16.812 27.654,-36.125 36.441,-57.925c8.784,-21.804 13.18,-45.075 13.18,-69.8c-0,-24.733 -4.45,-48.108 -13.342,-70.129c-8.896,-22.012 -21.1,-41.325 -36.608,-57.925c-15.517,-16.596 -33.521,-29.662 -54.025,-39.212c-20.492,-9.546 -42.459,-14.317 -65.892,-14.317c-23.65,0 -45.725,4.771 -66.221,14.317c-20.5,9.55 -38.512,22.729 -54.021,39.537c-15.512,16.821 -27.658,36.125 -36.446,57.925c-8.791,21.8 -13.179,45.071 -13.179,69.804c0,24.95 4.446,48.375 13.342,70.288c8.887,21.917 21.1,41.225 36.608,57.921c15.509,16.712 33.517,29.783 54.017,39.221c20.5,9.433 42.467,14.154 65.9,14.154m-0,54.671c-30.804,-0 -59.771,-6.138 -86.883,-18.388c-27.125,-12.254 -50.988,-29.237 -71.596,-50.933c-20.609,-21.688 -36.775,-46.8 -48.484,-75.334c-11.712,-28.516 -17.575,-59.062 -17.575,-91.6c0,-32.541 5.863,-63.079 17.575,-91.604c11.709,-28.525 27.875,-53.637 48.484,-75.337c20.608,-21.692 44.471,-38.667 71.596,-50.925c27.112,-12.259 56.079,-18.388 86.883,-18.388c31.021,0 60.092,6.129 87.212,18.388c27.113,12.258 50.984,29.233 71.588,50.925c20.608,21.7 36.717,46.812 48.329,75.337c11.6,28.525 17.408,59.063 17.408,91.604c0,32.538 -5.808,63.084 -17.408,91.6c-11.612,28.534 -27.721,53.646 -48.329,75.334c-20.604,21.696 -44.475,38.679 -71.588,50.933c-27.12,12.25 -56.191,18.388 -87.212,18.388" style="fill:#23dd1d;fill-rule:nonzero;"/><path d="M3285.01,2244.96l96.004,0c23.854,0 46.258,-4.496 67.192,-13.504c20.933,-9 39.316,-21.425 55.162,-37.263c15.829,-15.829 28.254,-34.216 37.254,-55.158c9.005,-20.929 13.505,-43.329 13.505,-67.196c-0,-23.858 -4.5,-46.258 -13.505,-67.196c-9,-20.937 -21.475,-39.32 -37.416,-55.158c-15.946,-15.837 -34.338,-28.254 -55.167,-37.262c-20.821,-9.005 -43.171,-13.509 -67.025,-13.509l-96.004,0l-0,346.246Zm-54.671,54.671l0,-455.583l150.675,-0c31.45,-0 60.954,5.912 88.513,17.733c27.55,11.829 51.741,28.208 72.562,49.137c20.829,20.938 37.146,45.13 48.975,72.571c11.825,27.446 17.733,56.892 17.733,88.35c0,31.459 -5.908,60.909 -17.733,88.35c-11.829,27.446 -28.146,51.638 -48.975,72.567c-20.821,20.942 -45.012,37.317 -72.562,49.137c-27.559,11.83 -57.063,17.738 -88.513,17.738l-150.675,-0Z" style="fill:#23dd1d;fill-rule:nonzero;"/><path d="M3757.51,2299.63l0,-455.583l279.538,0l-0,54.667l-224.867,-0l0,129.516l184.192,0l-0,54.671l-184.192,0l0,162.059l224.867,-0.001l-0,54.671l-279.538,0Z" style="fill:#23dd1d;fill-rule:nonzero;"/></g></g></svg>