<svg width="100%" height="100%" viewBox="0 0 114 24" fill="none" xmlns="http://www.w3.org/2000/svg">
  <path d="M36.386 6.42253C31.8251 6.42253 28.2777 9.97183 28.2777 15.2113C28.2777 20.4507 31.8251 24 36.386 24C40.9469 24 44.4943 20.4507 44.4943 15.2113C44.4943 9.97183 40.9469 6.42253 36.386 6.42253ZM36.386 21.6338C33.3116 21.6338 30.8115 19.0986 30.8115 15.2113C30.8115 11.3239 33.3116 8.78873 36.386 8.78873C39.4604 8.78873 41.9604 11.3239 41.9604 15.2113C41.9604 19.0986 39.4604 21.6338 36.386 21.6338ZM59.4609 9.12676H59.2919C57.9406 7.40282 56.2851 6.42253 53.8864 6.42253C49.4606 6.42253 46.1159 9.97183 46.1159 15.2113C46.1159 20.4507 49.4606 24 53.8864 24C56.2851 24 57.9406 23.0197 59.2919 21.2958H59.4609V23.662H61.9947V0H59.4609V9.12676ZM54.0553 21.6338C51.1836 21.6338 48.6498 19.0986 48.6498 15.2113C48.6498 11.3239 51.1836 8.78873 54.0553 8.78873C56.927 8.78873 59.4609 11.3239 59.4609 15.2113C59.4609 19.0986 56.927 21.6338 54.0553 21.6338ZM76.4883 6.76056H79.0221V23.662H76.4883V21.8028H76.3194C75.9477 22.2423 75.5423 22.6141 75.0355 22.9183C74.1909 23.4592 72.9747 24 71.2517 24C67.3664 24 64.4948 21.1268 64.4948 16.9014V6.76056H67.0286V16.9014C67.0286 19.6056 69.0557 21.6338 71.5895 21.6338C74.2923 21.6338 76.4883 19.4366 76.4883 16.9014V6.76056ZM81.5222 0H84.056V23.662H81.5222V0ZM99.3267 9.12676H99.1577C97.8064 7.40282 96.1509 6.42253 93.7522 6.42253C89.3264 6.42253 85.9818 9.97183 85.9818 15.2113C85.9818 20.4507 89.3264 24 93.7522 24C96.1509 24 97.8064 23.0197 99.1577 21.2958H99.3267V23.662H101.861V6.76056H99.3267V9.12676ZM93.9211 21.6338C91.0494 21.6338 88.5156 19.0986 88.5156 15.2113C88.5156 11.3239 91.0494 8.78873 93.9211 8.78873C96.7928 8.78873 99.3267 11.3239 99.3267 15.2113C99.3267 19.0986 96.7928 21.6338 93.9211 21.6338ZM113.143 6.76056V9.12676H107.063C106.97 9.12676 106.894 9.20282 106.894 9.29577V23.662H104.361V9.12676H106.725C106.818 9.12676 106.894 9.0507 106.894 8.95775V6.76056H113.143ZM23.8181 3.5493H26.352V23.662H23.6492V3.71831C23.6492 3.62535 23.5732 3.5493 23.4803 3.5493H22.2978L15.2031 23.662H11.1489L4.05415 3.5493H2.70277V23.662H0V0H5.57446L12.8381 20.6197H13.5138L20.7775 0H23.6492V3.38028C23.6492 3.47324 23.7252 3.5493 23.8181 3.5493Z" fill="#ffffff"></path>
</svg>
