<svg id="Layer_1" enable-background="new 0 0 450 450" height="512" viewBox="0 0 450 450" width="512" xmlns="http://www.w3.org/2000/svg"><g><g><path d="m410 365.4h-370c-19.9 0-36-16.2-36-36v-222.5c0-19.9 16.2-36 36-36h157.8c2.8 0 5 2.2 5 5s-2.2 5-5 5h-157.8c-14.4 0-26 11.7-26 26v222.5c0 14.4 11.7 26 26 26h370c14.4 0 26-11.7 26-26v-222.5c0-14.4-11.7-26-26-26-2.8 0-5-2.2-5-5s2.2-5 5-5c19.9 0 36 16.2 36 36v222.5c0 19.8-16.2 36-36 36z"/></g><g><path d="m185.7 425.4c-.8 0-1.6-.2-2.3-.6-2.4-1.3-3.4-4.3-2.1-6.8 9.7-18.4 9.7-36 0-55.5-1.2-2.5-.2-5.5 2.2-6.7 2.5-1.2 5.5-.2 6.7 2.2 11.1 22.2 11.1 43.4 0 64.6-1 1.8-2.7 2.8-4.5 2.8zm78.6 0c-1.8 0-3.5-1-4.4-2.7-11.2-21.2-11.2-42.3 0-64.6 1.2-2.5 4.2-3.5 6.7-2.2 2.5 1.2 3.5 4.2 2.2 6.7-9.7 19.4-9.7 37 0 55.5 1.3 2.4.3 5.5-2.1 6.8-.8.3-1.6.5-2.4.5z"/></g><g><path d="m288.1 425.4h-126.2c-2.8 0-5-2.2-5-5s2.2-5 5-5h126.2c2.8 0 5 2.2 5 5s-2.2 5-5 5z"/></g><g><path d="m303.9 127.1c-62.3 0-111.1-22.5-111.1-51.2s48.8-51.2 111.1-51.2 111.1 22.4 111.1 51.1-48.8 51.3-111.1 51.3zm0-92.5c-27.6 0-53.5 4.7-72.9 13.1-17.9 7.8-28.1 18-28.1 28.1s10.3 20.3 28.1 28.1c19.5 8.5 45.4 13.1 72.9 13.1s53.5-4.7 72.9-13.2c17.9-7.8 28.1-18 28.1-28.1s-10.3-20.3-28.1-28.1c-19.4-8.3-45.3-13-72.9-13z"/></g><g><path d="m303.9 183.6c-62.3 0-111.1-22.5-111.1-51.2 0-2.8 2.2-5 5-5s5 2.2 5 5c0 19.9 40.6 41.2 101.1 41.2s101.1-21.3 101.1-41.2c0-2.8 2.2-5 5-5s5 2.2 5 5c0 28.7-48.8 51.2-111.1 51.2z"/></g><g><path d="m303.9 240.2c-62.3 0-111.1-22.5-111.1-51.2 0-2.8 2.2-5 5-5s5 2.2 5 5c0 19.9 40.6 41.2 101.1 41.2s101.1-21.3 101.1-41.2c0-2.8 2.2-5 5-5s5 2.2 5 5c0 28.7-48.8 51.2-111.1 51.2z"/></g><g><path d="m197.8 194c-2.8 0-5-2.2-5-5v-113.2c0-2.8 2.2-5 5-5s5 2.2 5 5v113.2c0 2.7-2.2 5-5 5z"/></g><g><path d="m410 194c-2.8 0-5-2.2-5-5v-113.2c0-2.8 2.2-5 5-5s5 2.2 5 5v113.2c0 2.7-2.3 5-5 5z"/></g><g><g><g><path d="m80.6 231.2c-1.1 0-2.2-.4-3.2-1.1l-34.9-28.5c-1.2-.9-1.8-2.4-1.8-3.9s.7-2.9 1.8-3.9l34.9-28.5c2.1-1.7 5.3-1.4 7 .7s1.4 5.3-.7 7l-30.2 24.7 30.2 24.7c2.1 1.7 2.5 4.9.7 7-.9 1.2-2.4 1.8-3.8 1.8z"/></g><g><path d="m143.6 231.2c-1.4 0-2.9-.6-3.9-1.8-1.7-2.1-1.4-5.3.7-7l30.1-24.7-30.1-24.7c-2.1-1.7-2.5-4.9-.7-7s4.9-2.5 7-.7l34.9 28.5c1.2.9 1.8 2.4 1.8 3.9s-.7 2.9-1.8 3.9l-34.9 28.5c-.8.7-2 1.1-3.1 1.1z"/></g><g><path d="m103.2 235.9c-.4 0-.9-.1-1.3-.2-2.7-.7-4.3-3.5-3.5-6.1l17.8-66.5c.7-2.7 3.5-4.3 6.1-3.5 2.7.7 4.3 3.5 3.5 6.1l-17.8 66.5c-.6 2.2-2.6 3.7-4.8 3.7z"/></g></g><g><g><g><path d="m129.3 279.6h-81.4c-2.8 0-5-2.2-5-5s2.2-5 5-5h81.4c2.8 0 5 2.2 5 5s-2.3 5-5 5z"/></g><g><path d="m187.5 279.6h-29.6c-2.8 0-5-2.2-5-5s2.2-5 5-5h29.6c2.8 0 5 2.2 5 5s-2.2 5-5 5z"/></g><g><path d="m271.7 279.6h-29.6c-2.8 0-5-2.2-5-5s2.2-5 5-5h29.6c2.8 0 5 2.2 5 5s-2.3 5-5 5z"/></g><g><path d="m403.9 279.6h-103.5c-2.8 0-5-2.2-5-5s2.2-5 5-5h103.6c2.8 0 5 2.2 5 5s-2.3 5-5.1 5z"/></g><g><path d="m106.3 316.4h-58.4c-2.8 0-5-2.2-5-5s2.2-5 5-5h58.4c2.8 0 5 2.2 5 5s-2.3 5-5 5z"/></g><g><path d="m280.1 316.4h-142.8c-2.8 0-5-2.2-5-5s2.2-5 5-5h142.8c2.8 0 5 2.2 5 5s-2.2 5-5 5z"/></g><g><path d="m343.3 316.4h-25.8c-2.8 0-5-2.2-5-5s2.2-5 5-5h25.8c2.8 0 5 2.2 5 5s-2.3 5-5 5z"/></g><g><path d="m404.3 316.4h-25.8c-2.8 0-5-2.2-5-5s2.2-5 5-5h25.8c2.8 0 5 2.2 5 5s-2.3 5-5 5z"/></g></g><g><g><path d="m166.1 129.8h-57.1c-2.8 0-5-2.2-5-5s2.2-5 5-5h57.1c2.8 0 5 2.2 5 5s-2.2 5-5 5z"/></g><g><path d="m77.9 129.8h-30c-2.8 0-5-2.2-5-5s2.2-5 5-5h30.1c2.8 0 5 2.2 5 5s-2.3 5-5.1 5z"/></g></g></g></g></g></svg>