<svg id="Layer_1" viewBox="0 0 512 512" xmlns="http://www.w3.org/2000/svg" data-name="Layer 1"><path d="m203.074 128.853c-40.767-14.574-107.488-14.574-148.255 0-37.022 13.235-37.022 30.736 0 43.971 40.768 14.574 107.487 14.574 148.255 0 37.023-13.234 37.023-30.736 0-43.971zm-145.233 77.217a5.492 5.492 0 1 1 -3.435 10.43l-7.632-2.784a5.482 5.482 0 1 1 4.079-10.176l6.988 2.526zm0 64.5a5.492 5.492 0 1 1 -3.435 10.43l-7.632-2.783a5.482 5.482 0 1 1 4.079-10.177l6.988 2.526zm0 64.5a5.492 5.492 0 1 1 -3.435 10.43l-7.632-2.784a5.482 5.482 0 1 1 4.079-10.176l6.988 2.526zm131.408-93.624c-40.9 10.241-98 8.859-134.431-4.163-17.188-6.146-27.818-13.96-27.818-21.983v-44.911c39.465 32.42 164.482 32.416 203.916-.017v4.781a11.277 11.277 0 0 0 -2.184 1.706l-22.873 22.873.01.01a11.322 11.322 0 0 0 -.01 16.017l5.741 5.741-2.9 6.992h-8.119a11.3 11.3 0 0 0 -8.009 3.325c-2.945 2.945-3.325 5.8-3.325 9.627zm13.543 60.445a11.27 11.27 0 0 1 3.066-5.648l5.742-5.743-2.9-6.992h-8.119a11.373 11.373 0 0 1 -11.334-11.334v-19.448c-42.63 10.066-100.307 8.423-138.123-5.1-9.948-3.557-18.154-7.877-24.127-12.784v44.958c0 8.027 10.632 15.842 27.819 21.986 39.258 14.034 105.789 15.068 147.974.109zm28.1 34.945a11.3 11.3 0 0 1 -2.163-1.693l-22.744-22.743c-44.585 15.632-113.285 14.589-154.859-.271-9.948-3.556-18.155-7.877-24.127-12.783v44.974c.022 8.018 10.649 15.823 27.819 21.961 40.768 14.573 107.489 14.573 148.256 0 17.189-6.145 27.82-13.959 27.82-21.986v-7.46zm75.476-102.2a30.223 30.223 0 1 0 0 42.741 30.225 30.225 0 0 0 0-42.741zm-21.368-19.85a41.214 41.214 0 1 1 -41.215 41.214 41.216 41.216 0 0 1 41.215-41.214zm57.468-21.186 13.951 13.95a.428.428 0 0 1 .042.193l-8.629 8.779a5.5 5.5 0 0 0 -.724 6.878 74.736 74.736 0 0 1 5 12.176 5.475 5.475 0 0 0 5.238 3.886v.021l12.315.094-.01.011a.338.338 0 0 1 .1.237v32.347a.34.34 0 0 1 -.1.237l-12.3.1a5.5 5.5 0 0 0 -5.38 4.367 74.872 74.872 0 0 1 -5.081 12.133 5.477 5.477 0 0 0 .959 6.449l-.015.013 8.537 8.536v.484l-13.931 13.935-9.186 9.037-8.778-8.629a5.5 5.5 0 0 0 -6.878-.724 74.832 74.832 0 0 1 -12.177 5 5.478 5.478 0 0 0 -3.886 5.239h-.021v12.067l-.341.341h-16.173l-16.421-.093.011-.011-.105-12.3a5.5 5.5 0 0 0 -4.367-5.38 74.91 74.91 0 0 1 -12.133-5.081 5.475 5.475 0 0 0 -6.448.959l-.014-.014-8.536 8.536h-.487l-21.459-21.459-1.041-2.269 8.167-8.168a5.5 5.5 0 0 0 .724-6.879 74.814 74.814 0 0 1 -5-12.175 5.477 5.477 0 0 0 -5.238-3.887v-.021h-12.07l-.305-.171-.037-32.517a.338.338 0 0 1 .1-.237l12.3-.1a5.5 5.5 0 0 0 5.38-4.366 74.872 74.872 0 0 1 5.081-12.133 5.476 5.476 0 0 0 -.958-6.448l.013-.014-8.536-8.537-.01-.494.01.01 22.879-22.878a.341.341 0 0 1 .242-.092l8.778 8.628a5.5 5.5 0 0 0 6.879.724 74.821 74.821 0 0 1 12.176-5 5.475 5.475 0 0 0 3.886-5.238h.021l.094-12.315 16.424-.095 16.421.094.094 12.315a5.5 5.5 0 0 0 4.367 5.38 74.9 74.9 0 0 1 12.133 5.08 5.477 5.477 0 0 0 6.448-.958l.014.013 8.778-8.628c.369 0 8.246 8.131 9.214 9.064zm53.094-82.866a10.661 10.661 0 1 0 0 15.077 10.673 10.673 0 0 0 0-15.077zm0 275.452a10.661 10.661 0 1 0 0 15.077 10.673 10.673 0 0 0 0-15.077zm86.322-71.368a10.661 10.661 0 1 0 0 15.077 10.672 10.672 0 0 0 0-15.077zm-43.161-66.359a10.661 10.661 0 1 0 0 15.078 10.673 10.673 0 0 0 0-15.078zm43.162-66.359a10.661 10.661 0 1 0 0 15.078 10.672 10.672 0 0 0 0-15.078zm-7.539-14.114c19.222 0 28.921 23.352 15.311 36.963a21.677 21.677 0 0 1 -36.259-9.814h-93.851l4.969 5.009a11.3 11.3 0 0 1 -.375 15.612l-5.741 5.744 2.9 6.991h8.12a11.311 11.311 0 0 1 8 3.336l.01-.011a11.3 11.3 0 0 1 3.325 8.009v10.675h29.488a21.676 21.676 0 0 1 36.257-9.81c13.611 13.61 3.912 36.963-15.31 36.963a21.663 21.663 0 0 1 -20.953-16.153h-29.488v10.678a11.373 11.373 0 0 1 -11.333 11.334h-8.116l-2.9 6.991 5.743 5.743a11.349 11.349 0 0 1 0 16.027l-4.594 4.593h93.851a21.677 21.677 0 0 1 36.259-9.814c13.611 13.611 3.911 36.964-15.311 36.964a21.665 21.665 0 0 1 -20.948-16.161h-104.845l-7.287 7.287a11.349 11.349 0 0 1 -16.027 0l-5.741-5.742-6.992 2.9v8.12a11.353 11.353 0 0 1 -11.333 11.334h-10.675v36.476h76.58a21.677 21.677 0 0 1 36.259-9.814c13.611 13.611 3.912 36.963-15.31 36.963a21.664 21.664 0 0 1 -20.949-16.157h-82.08a5.5 5.5 0 0 1 -5.5-5.5v-41.971h-10.675a11.313 11.313 0 0 1 -8-3.336l-.011.011a11.3 11.3 0 0 1 -3.325-8.009v-8.117l-6.992-2.9-5.742 5.743a11.318 11.318 0 0 1 -2.871 2.086v7.071c0 13.186-13.422 24.577-35.12 32.334-43.153 15.426-112.489 15.426-155.641 0-18.891-6.754-31.506-16.262-34.455-27.31-.948-2.379-.621-2.313-.665-5.024v-193.461c0-13.208 13.469-24.594 35.119-32.334 43.154-15.427 112.488-15.427 155.641 0 21.7 7.757 35.12 19.148 35.12 32.334l-.022 23.923a11.29 11.29 0 0 1 2.893 2.1l5.746 5.738 6.992-2.9v-8.119a11.386 11.386 0 0 1 11.333-11.334h10.675v-41.972a5.5 5.5 0 0 1 5.5-5.5h82.076a21.677 21.677 0 0 1 36.259-9.814c13.611 13.61 3.912 36.963-15.31 36.963a21.665 21.665 0 0 1 -20.949-16.157h-76.576v36.483h10.678a11.386 11.386 0 0 1 11.333 11.334v8.116l6.992 2.9 5.743-5.742a11.348 11.348 0 0 1 16.027 0l7.287 7.287h104.84a21.664 21.664 0 0 1 20.946-16.156z" fill="rgb(0,0,0)" fill-rule="evenodd"/></svg>