<?xml version="1.0" encoding="UTF-8" standalone="no"?><!DOCTYPE svg PUBLIC "-//W3C//DTD SVG 1.1//EN" "http://www.w3.org/Graphics/SVG/1.1/DTD/svg11.dtd"><svg width="100%" height="100%" viewBox="0 0 2439 906" version="1.1" xmlns="http://www.w3.org/2000/svg" xmlns:xlink="http://www.w3.org/1999/xlink" xml:space="preserve" xmlns:serif="http://www.serif.com/" style="fill-rule:evenodd;clip-rule:evenodd;stroke-linejoin:round;stroke-miterlimit:2;"><path d="M569.821,565.125l-27.463,-0l0,70.862l27.463,0c28.141,0 43.058,-10.508 43.058,-35.262c0,-25.088 -14.917,-35.6 -43.058,-35.6Zm2.375,113.587l-29.838,0l0,66.117c0,9.496 -5.429,14.917 -14.925,14.917l-24.07,-0c-9.492,-0 -14.917,-5.421 -14.917,-14.917l-0,-207.508c-0,-9.492 5.425,-14.917 14.917,-14.917l68.833,0c59.675,0 95.275,26.108 95.275,78.321c-0,51.879 -35.6,77.987 -95.275,77.987Z" style="fill:#fff;fill-rule:nonzero;"/><path d="M698.646,683.458l-0,-84.425c-0,-9.496 5.429,-14.921 14.921,-14.921l21.7,0c9.495,0 14.92,5.425 14.92,14.921l0,87.475c0,24.754 14.242,36.959 33.567,36.959c19.325,-0 33.567,-12.205 33.567,-36.959l-0,-87.475c-0,-9.496 5.425,-14.921 14.916,-14.921l21.701,0c9.495,0 14.92,5.425 14.92,14.921l0,84.425c0,53.234 -32.892,80.359 -85.104,80.359c-52.217,-0 -85.108,-27.125 -85.108,-80.359Z" style="fill:#fff;fill-rule:nonzero;"/><path d="M1018.37,621.071c-2.375,-0.338 -4.408,-0.338 -6.783,-0.338c-20.68,0 -38.992,9.829 -49.163,25.088l-0,99.008c-0,9.496 -5.425,14.917 -14.917,14.917l-21.704,-0c-9.492,-0 -14.917,-5.421 -14.917,-14.917l0,-145.796c0,-9.496 5.425,-14.921 14.917,-14.921l21.704,0c9.492,0 14.917,5.425 14.917,14.921l-0,6.779c10.85,-15.937 27.804,-25.77 51.538,-25.77c-0,-0 10.85,5.766 10.85,15.258l-0,10.854c-0,9.829 -2.375,14.917 -6.442,14.917Z" style="fill:#fff;fill-rule:nonzero;"/><path d="M1177.38,671.929c0,-32.887 -12.883,-51.537 -38.991,-51.537c-12.209,-0 -26.788,5.762 -35.6,15.258l-0,72.558c8.812,9.496 23.391,15.259 35.6,15.259c26.108,-0 38.991,-18.646 38.991,-51.538Zm-23.054,91.888c-19.667,-0 -37.979,-7.8 -51.537,-20.346l-0,73.237c-0,9.496 -5.43,14.921 -14.921,14.921l-21.7,0c-9.496,0 -14.921,-5.425 -14.921,-14.921l-0,-217.675c-0,-9.496 5.425,-14.921 14.921,-14.921l21.7,0c9.491,0 14.921,5.425 14.921,14.921l-0,1.354c13.558,-12.545 31.87,-20.345 51.537,-20.345c46.112,-0 75.271,33.908 75.271,91.887c-0,57.979 -29.159,91.888 -75.271,91.888Z" style="fill:#fff;fill-rule:nonzero;"/><path d="M1282.13,512.229l21.7,0c9.496,0 14.921,5.425 14.921,14.921l0,217.679c0,9.496 -5.425,14.917 -14.921,14.917l-21.7,-0c-9.492,-0 -14.921,-5.421 -14.921,-14.917l0,-217.679c0,-9.496 5.429,-14.921 14.921,-14.921Z" style="fill:#fff;fill-rule:nonzero;"/><path d="M1405.55,653.621l73.912,-0c-2.033,-20.684 -16.612,-33.229 -36.616,-33.229c-20.684,-0 -34.246,11.866 -37.296,33.229Zm124.775,20.341c-0,9.496 -5.767,14.58 -15.259,14.58l-109.179,-0c3.73,22.041 19.663,34.925 44.079,34.925c11.525,-0 20.684,-3.73 28.48,-10.171c7.12,-6.104 13.562,-7.8 21.025,-2.371l11.187,7.796c8.138,5.762 9.833,13.904 2.375,21.021c-16.954,15.595 -38.996,24.075 -65.1,24.075c-57.641,-0 -93.246,-38.313 -93.246,-91.888c0,-53.571 35.267,-91.887 88.159,-91.887c52.216,-0 87.479,37.979 87.479,92.566l-0,1.354Z" style="fill:#fff;fill-rule:nonzero;"/><path d="M1546.92,566.821c-9.492,-0 -14.917,-5.425 -14.917,-14.921l0,-14.579c0,-9.492 5.425,-14.917 14.917,-14.917l161.054,0c9.496,0 14.921,5.425 14.921,14.917l-0,14.579c-0,9.496 -5.425,14.921 -14.921,14.921l-53.571,-0l0,178.008c0,9.496 -5.425,14.917 -14.916,14.917l-24.075,-0c-9.492,-0 -14.921,-5.421 -14.921,-14.917l-0,-178.008l-53.571,-0Z" style="fill:#fff;fill-rule:nonzero;"/><path d="M1814.44,620.392c-23.733,-0 -37.633,18.65 -37.633,51.537c0,32.892 13.9,51.538 37.633,51.538c23.738,-0 37.638,-18.646 37.638,-51.538c-0,-32.887 -13.9,-51.537 -37.638,-51.537Zm0,143.425c-54.249,-0 -89.849,-37.975 -89.849,-91.888c-0,-53.908 35.6,-91.887 89.849,-91.887c54.25,-0 89.855,37.979 89.855,91.887c-0,53.913 -35.605,91.888 -89.855,91.888Z" style="fill:#fff;fill-rule:nonzero;"/><path d="M2046,621.071c-2.375,-0.338 -4.408,-0.338 -6.779,-0.338c-20.683,0 -38.996,9.829 -49.167,25.088l0,99.008c0,9.496 -5.425,14.917 -14.916,14.917l-21.7,-0c-9.496,-0 -14.921,-5.421 -14.921,-14.917l-0,-145.796c-0,-9.496 5.425,-14.921 14.921,-14.921l21.7,0c9.491,0 14.916,5.425 14.916,14.921l0,6.779c10.85,-15.937 27.804,-25.77 51.538,-25.77c-0,-0 10.854,5.766 10.854,15.258l0,10.854c0,9.829 -2.375,14.917 -6.446,14.917Z" style="fill:#fff;fill-rule:nonzero;"/><path d="M2158.56,580.042c29.838,-0 54.251,11.529 70.863,30.858c6.783,7.796 4.071,15.933 -5.083,20.342l-12.884,6.441c-8.137,4.071 -14.241,1.696 -20.345,-5.083c-7.801,-7.8 -16.955,-12.208 -29.159,-12.208c-26.108,-0 -40.012,20.004 -40.012,51.537c-0,31.533 13.904,51.538 40.012,51.538c12.204,-0 21.358,-4.409 29.159,-12.205c6.104,-6.783 12.208,-8.816 20.345,-4.75l12.884,6.105c9.154,4.408 11.866,12.545 5.083,20.345c-16.612,19.325 -41.025,30.855 -70.863,30.855c-54.587,-0 -88.833,-38.313 -88.833,-91.888c0,-53.571 34.246,-91.887 88.833,-91.887Z" style="fill:#fff;fill-rule:nonzero;"/><path d="M2319.61,639.721l0,105.108c0,9.496 -5.429,14.917 -14.921,14.917l-21.7,-0c-9.495,-0 -14.916,-5.421 -14.916,-14.917l-0,-217.679c-0,-9.496 5.421,-14.921 14.916,-14.921l21.7,0c9.492,0 14.921,5.425 14.921,14.921l0,76.629c12.542,-12.887 33.567,-23.737 57.638,-23.737c36.621,-0 61.371,23.058 61.371,67.137l-0,97.65c-0,9.496 -5.425,14.917 -14.917,14.917l-21.7,-0c-9.496,-0 -14.921,-5.421 -14.921,-14.917l0,-92.225c0,-20.683 -9.154,-32.212 -27.8,-32.212c-15.937,-0 -31.196,9.154 -39.671,19.329Z" style="fill:#fff;fill-rule:nonzero;"/><path d="M207.425,771.679c-1.079,0.221 -2.192,0.442 -3.271,0.608l0,91.159l-29.387,-0l-0,-76.396c-4.8,0.279 -9.825,0.446 -14.821,0.446c-8.684,-0 -17.621,-0.475 -26.554,-1.417c-0.084,0 -0.167,0 -0.25,-0.029l-0,119.017l112.633,-0l-0,-144.405c-2.329,0.859 -4.746,1.746 -7.213,2.58c-10.1,3.495 -20.62,6.325 -31.137,8.437Z" style="fill:url(#_Linear1);"/><path d="M374.367,341.921l-48.396,-0c-21.646,24.891 -50.142,43.875 -80.196,55.029c-13.733,5.104 -27.775,8.575 -41.621,10.212c-6.162,0.75 -12.267,1.109 -18.287,1.109l-0.334,-0c-3.554,-0 -7.162,-0.138 -10.766,-0.417c-13.767,-1.025 -27.809,-3.883 -41.625,-8.433c-32.605,-10.713 -63.909,-30.663 -87.271,-57.5l-45.871,-0l10.879,23.533l96.513,208.954c-12.796,7.909 -22.896,17.896 -29.584,29.246c-8.266,14.012 -11.1,29.388 -13.571,42.958l-4.079,22.142l32.746,6.05l4.079,-22.171c2.084,-11.379 4.246,-23.146 9.517,-32.108c3.833,-6.492 9.379,-11.625 15.012,-15.567c3.83,-2.716 7.717,-4.854 11.1,-6.466c0.167,-0.084 0.334,-0.167 0.53,-0.246c8.325,-3.917 17.537,-6.8 26.833,-9.325c3.942,-1.084 7.908,-2.084 11.821,-3.08l-8.242,-32.274c-5.854,1.5 -11.767,2.995 -17.733,4.716l-12.679,-27.441l-49.505,-107.142c15.925,8.296 32.634,14.762 49.505,19.175c13.845,3.633 27.833,5.883 41.625,6.687c3.579,0.221 7.129,0.334 10.654,0.334l0.446,-0c6.045,-0 12.154,-0.28 18.287,-0.888c13.871,-1.279 27.829,-4.025 41.621,-8.104c15.65,-4.604 31.025,-10.962 45.733,-18.896l-45.733,98.979l-22.946,49.675c7.6,-1.583 15.258,-2.916 22.946,-4.025c8.629,-1.275 17.317,-2.22 26.029,-2.887c0.058,-0.083 0.138,-0.138 0.196,-0.221l94.929,-205.512l7.438,-16.096Z" style="fill:url(#_Linear2);"/><path d="M244.721,706.162c-8.684,4.33 -17.729,7.963 -27,10.905c-5.021,1.608 -10.071,3.025 -15.234,4.191c-1.887,0.471 -3.775,0.888 -5.687,1.246c-7.133,1.446 -14.321,2.5 -21.592,3.138c-0.858,0.083 -1.691,0.166 -2.55,0.195c-4.662,0.388 -9.354,0.58 -14.1,0.609l-0.941,-0c-2.996,-0 -6.05,-0.054 -9.075,-0.221c-4.467,-0.196 -8.909,-0.554 -13.321,-1.054c-0.692,-0.059 -1.388,-0.142 -2.079,-0.25l-0,33.521c0.083,-0 0.166,0.029 0.25,0.029c8.02,0.829 16.15,1.275 24.225,1.275l1.108,-0c4.662,-0.029 9.296,-0.196 13.933,-0.5c0.692,-0.029 1.413,-0.084 2.109,-0.138c1.691,-0.112 3.383,-0.25 5.075,-0.416c3.441,-0.334 6.854,-0.75 10.295,-1.25c4.138,-0.584 8.242,-1.275 12.35,-2.08c0.555,-0.112 1.109,-0.225 1.667,-0.333c9.433,-1.946 18.729,-4.471 27.829,-7.55c4.304,-1.442 8.546,-3.025 12.738,-4.771c0.362,-0.141 0.696,-0.279 1.054,-0.446c7.937,-3.216 15.65,-6.937 23.146,-11.041l-16.513,-29.055c-2.525,1.388 -5.079,2.717 -7.687,3.996Z" style="fill:url(#_Linear3);"/><path d="M267.004,642.337c-7.133,5.521 -14.567,10.488 -22.283,14.875c-7.213,4.163 -14.708,7.796 -22.421,10.905c-6.467,2.637 -13.071,4.883 -19.813,6.77c-1.333,0.388 -2.662,0.75 -4.025,1.084c-8.408,2.162 -17.037,3.716 -25.804,4.687c-0.971,0.142 -1.946,0.225 -2.916,0.309c-4.992,0.495 -9.988,0.775 -15.067,0.887c-0.75,0.025 -1.5,0.025 -2.25,0.025l-1.471,0c-5.383,0 -10.846,-0.221 -16.204,-0.692c-0.554,-0.029 -1.083,-0.083 -1.608,-0.137l-0,33.408c5.908,0.5 11.875,0.721 17.812,0.721l1.25,0c0.5,0 1,0 1.5,-0.029c5.438,-0.054 10.85,-0.304 16.233,-0.746c0.888,-0.083 1.83,-0.167 2.721,-0.25c0.692,-0.058 1.413,-0.142 2.109,-0.225c9.404,-0.942 18.616,-2.496 27.72,-4.633c0.196,-0.025 0.363,-0.084 0.555,-0.138c0.362,-0.083 0.75,-0.167 1.112,-0.279c2.913,-0.662 5.796,-1.442 8.683,-2.275c10.905,-3.108 21.588,-7.046 31.884,-11.821c0.362,-0.166 0.721,-0.333 1.054,-0.5c14.821,-6.937 28.917,-15.537 42.125,-25.779l-14.817,-18.537l-6.079,-7.63Z" style="fill:url(#_Linear4);"/><path d="M252.825,603.046c-2.667,1.887 -5.329,3.716 -8.104,5.466c-13.154,8.434 -27.334,15.121 -42.234,19.896c-3.108,1.025 -6.216,1.942 -9.408,2.775c-4.633,1.221 -9.379,2.275 -14.125,3.134c-2.079,0.391 -4.187,0.72 -6.296,1.029c-8.275,1.204 -16.687,1.862 -25.204,1.958c-3.721,-0.008 -7.458,-0.112 -11.15,-0.35l0.067,0.138l-0.013,-0c-0.662,-0.025 -1.329,-0.055 -1.966,-0.109c-0.25,0 -0.5,0 -0.75,-0.029c-0.167,-0.029 -0.334,-0.029 -0.5,-0.029l-0,33.354c4.108,0.225 8.27,0.333 12.404,0.333l0.833,0c0.996,0 1.996,0 2.996,-0.054c0.804,0 1.608,-0.029 2.412,-0.054l0.005,-0l0.025,0.054c7.741,-0.112 15.4,-0.666 22.95,-1.608c0.941,-0.113 1.883,-0.221 2.829,-0.363c5.966,-0.804 11.875,-1.887 17.704,-3.216c2.971,-0.642 5.937,-1.388 8.854,-2.192c8.85,-2.387 17.479,-5.329 25.888,-8.854l0.308,-0.667c4.883,-1.996 9.683,-4.216 14.371,-6.633c0.362,-0.163 0.696,-0.358 1.054,-0.554c27,-13.875 51.004,-33.521 70.4,-58.05l-26.667,-20.479c-10.712,13.541 -23.058,25.308 -36.683,35.104Z" style="fill:url(#_Linear5);"/><path d="M105.371,318.608c-0,0 -38.663,-57.079 12.691,-141.046c0,0 -12.683,37.938 -7.591,69.192c-0,0 3.796,-62.917 73.154,-145c-0,-0 4.096,52.079 43.662,97.733c39.567,45.655 43.625,73.013 44.184,97.663c-0,-0 30.125,-23.354 25.671,-106.688c-6.917,-53.554 -42.88,-112.037 -42.88,-112.037c0,-0 9.734,38.725 3.246,65.867c0,-0 -32.954,-35.2 -44.125,-60.588c-11.171,-25.383 -19.187,-54.862 -7.658,-83.704c-0,-0 -75.554,70.783 -108.508,129.225c-32.959,58.442 -52.93,127.833 8.154,189.383Z" style="fill:url(#_Linear6);"/><path d="M232.563,342.791c-0,0 18.187,-31.837 -12.451,-74.283c0,0 8.267,19.604 6.834,36.388c-0,-0 -4.563,-33.213 -44.671,-73.925c0,-0 -0.063,27.779 -19.192,53.595c-19.129,25.813 -20.175,40.484 -19.471,53.58c0,-0 -16.92,-11.163 -17.937,-55.534c1.496,-28.679 18.196,-61.15 18.196,-61.15c-0,0 -3.592,20.93 0.95,35.059c-0,-0 16.046,-20 20.941,-33.917c4.896,-13.912 7.95,-29.871 0.667,-44.7c0,0 42.933,34.475 62.779,64.129c19.846,29.654 33.25,65.642 3.355,100.758Z" style="fill:url(#_Linear7);"/><defs><linearGradient id="_Linear1" x1="0" y1="0" x2="1" y2="0" gradientUnits="userSpaceOnUse" gradientTransform="matrix(22.9885,-931.921,931.921,22.9885,187.617,920.271)"><stop offset="0" style="stop-color:#6c52a2;stop-opacity:1"/><stop offset="1" style="stop-color:#b671af;stop-opacity:1"/></linearGradient><linearGradient id="_Linear2" x1="0" y1="0" x2="1" y2="0" gradientUnits="userSpaceOnUse" gradientTransform="matrix(22.9885,-931.921,931.921,22.9885,172.925,919.908)"><stop offset="0" style="stop-color:#6c52a2;stop-opacity:1"/><stop offset="1" style="stop-color:#b671af;stop-opacity:1"/></linearGradient><linearGradient id="_Linear3" x1="0" y1="0" x2="1" y2="0" gradientUnits="userSpaceOnUse" gradientTransform="matrix(22.9885,-931.921,931.921,22.9885,196.283,920.483)"><stop offset="0" style="stop-color:#6c52a2;stop-opacity:1"/><stop offset="1" style="stop-color:#b671af;stop-opacity:1"/></linearGradient><linearGradient id="_Linear4" x1="0" y1="0" x2="1" y2="0" gradientUnits="userSpaceOnUse" gradientTransform="matrix(22.9885,-931.921,931.921,22.9885,204.454,920.683)"><stop offset="0" style="stop-color:#6c52a2;stop-opacity:1"/><stop offset="1" style="stop-color:#b671af;stop-opacity:1"/></linearGradient><linearGradient id="_Linear5" x1="0" y1="0" x2="1" y2="0" gradientUnits="userSpaceOnUse" gradientTransform="matrix(22.9885,-931.921,931.921,22.9885,217.054,920.996)"><stop offset="0" style="stop-color:#6c52a2;stop-opacity:1"/><stop offset="1" style="stop-color:#b671af;stop-opacity:1"/></linearGradient><linearGradient id="_Linear6" x1="0" y1="0" x2="1" y2="0" gradientUnits="userSpaceOnUse" gradientTransform="matrix(22.9885,-931.921,931.921,22.9885,164.45,919.696)"><stop offset="0" style="stop-color:#6c52a2;stop-opacity:1"/><stop offset="1" style="stop-color:#b671af;stop-opacity:1"/></linearGradient><linearGradient id="_Linear7" x1="0" y1="0" x2="1" y2="0" gradientUnits="userSpaceOnUse" gradientTransform="matrix(22.9885,-931.921,931.921,22.9885,172.35,919.892)"><stop offset="0" style="stop-color:#6c52a2;stop-opacity:1"/><stop offset="1" style="stop-color:#b671af;stop-opacity:1"/></linearGradient></defs></svg>