<?xml version="1.0" encoding="UTF-8" standalone="no"?><!DOCTYPE svg PUBLIC "-//W3C//DTD SVG 1.1//EN" "http://www.w3.org/Graphics/SVG/1.1/DTD/svg11.dtd"><svg width="100%" height="100%" viewBox="0 0 4087 1096" version="1.1" xmlns="http://www.w3.org/2000/svg" xmlns:xlink="http://www.w3.org/1999/xlink" xml:space="preserve" xmlns:serif="http://www.serif.com/" style="fill-rule:evenodd;clip-rule:evenodd;stroke-linejoin:round;stroke-miterlimit:2;"><path d="M625.126,837.024l258.742,258.775l0.67,-0l-258.908,-258.904c-0.167,0.041 -0.333,0.091 -0.504,0.129" style="fill:#fff;fill-rule:nonzero;"/><path d="M555.092,766.357l-328.071,-328.075l-0.575,0l328.521,328.571c0.042,-0.166 0.083,-0.329 0.125,-0.496" style="fill:#fff;fill-rule:nonzero;"/><path d="M753.107,343.603l-0,-0.05c-0,-52.166 -42.367,-94.533 -94.53,-94.533l-0.095,0c52.241,0 94.6,42.342 94.625,94.583" style="fill:#fff;fill-rule:nonzero;"/><path d="M1004.36,-0l-913.013,-0c-38.241,-0 -70.954,23.525 -84.558,56.875l651.792,-0c158.037,-0 286.675,128.642 286.675,286.679c-0,147.763 -112.404,269.771 -256.134,285.046l402.571,402.654c2.596,-8.475 4.013,-17.471 4.013,-26.8l-0,-913.108c-0,-50.45 -40.9,-91.346 -91.346,-91.346" style="fill:#fff;fill-rule:nonzero;"/><path d="M667.399,797.147l298.608,298.655l0.008,-0l-266.787,-266.825l-31.829,-31.83Z" style="fill:#fff;fill-rule:nonzero;"/><path d="M144.783,438.283l-144.783,0l-0,566.171c-0,50.45 40.9,91.346 91.346,91.346l711.004,0l-278.55,-278.554l-379.017,-378.963Z" style="fill:#fff;fill-rule:nonzero;"/><path d="M611.595,813.454c-4.1,0 -7.988,-0.842 -11.613,-2.208c-0.296,-0.113 -0.617,-0.163 -0.912,-0.284c-0.017,-0.008 -0.046,-0.012 -0.063,-0.02c-8.129,-3.35 -14.612,-9.834 -17.962,-17.963c-0.009,-0.021 -0.013,-0.046 -0.021,-0.067c-0.117,-0.291 -0.167,-0.612 -0.284,-0.908c-1.362,-3.625 -2.208,-7.508 -2.208,-11.608c0,-18.259 14.804,-33.063 33.063,-33.063c2.283,0 4.508,0.234 6.662,0.671c0.004,0.004 0.008,0.004 0.008,0.004c0.005,0 0.005,0 0.005,0.004c12.904,2.646 23.066,12.809 25.708,25.709l-0,0.012c0.442,2.15 0.679,4.379 0.679,6.663c0,18.258 -14.804,33.058 -33.062,33.058m55.804,-16.308l-0,-0.004c1.591,-5.305 2.466,-10.921 2.466,-16.746c0,-32.184 -26.087,-58.275 -58.27,-58.275c-5.821,-0 -11.438,0.879 -16.742,2.466l-0,0.005l-0.013,-0l-286.304,-286.309l-56.771,-56.771l95.105,0l56.77,56.771l254.842,0c26.129,0 49.763,-10.571 66.963,-27.766c17.1,-17.1 27.662,-40.734 27.662,-66.867l0,-0.046c-0.025,-52.242 -42.383,-94.583 -94.625,-94.583l-621.304,-0l189.267,189.262l0.575,0l328.07,328.075c-0.037,0.163 -0.083,0.329 -0.12,0.496c-0.005,0.008 -0.009,0.021 -0.013,0.033c-1.033,4.342 -1.637,8.85 -1.637,13.509c-0,32.183 26.091,58.271 58.275,58.271c4.658,-0 9.158,-0.6 13.5,-1.634c0.008,-0.004 0.02,-0.004 0.033,-0.008c0.171,-0.042 0.333,-0.088 0.504,-0.133l258.904,258.908l81.471,-0l-298.608,-298.654Z" style="fill:#ed1c24;fill-rule:nonzero;"/><path d="M802.352,1095.8l0.041,-0l-278.591,-278.554l278.55,278.554Z" style="fill:#fff;fill-rule:nonzero;"/><path d="M1446.27,563.668l82.862,-0c46.204,-0 73.333,-27.863 73.333,-69.667c0,-40.333 -27.129,-68.929 -73.333,-68.929l-82.862,0l-0,138.596Zm197.996,258.129l-125.4,-170.862l-72.596,-0l-0,170.862l-99,0l-0,-483.992l181.862,0c101.934,0 174.534,61.6 174.534,156.196c-0,62.334 -33,112.2 -85.067,137.867l137.129,189.929l-111.462,0Z" style="fill:#fff;fill-rule:nonzero;"/><path d="M1936.84,604.002l164.995,0c-0.729,-46.2 -36.666,-73.333 -78.462,-73.333c-41.796,-0 -75.529,27.866 -86.533,73.333m254.462,69.667l-254.462,-0c11.729,46.2 49.133,71.862 101.933,71.862c39.6,0 71.862,-13.933 101.196,-36.666l41.066,67.466c-41.066,34.467 -89.462,54.263 -145.195,54.263c-115.13,-0 -198.73,-82.863 -198.73,-189.929c0,-107.063 82.863,-189.93 189.93,-189.93c101.929,0 170.866,74.796 170.866,168.663c0,20.533 -3.671,41.8 -6.604,54.271" style="fill:#fff;fill-rule:nonzero;"/><path d="M2598.99,640.666c-0,-68.934 -46.196,-100.463 -91.663,-100.463c-51.329,0 -93.862,38.134 -93.862,99.729c-0,61.6 41.796,100.467 93.862,100.467c45.467,0 91.663,-30.067 91.663,-99.733m97.533,-368.859l0,549.988l-90.929,-0l-0,-44.733c-24.938,34.47 -66.733,53.533 -116.6,53.533c-102.663,-0 -175.996,-80.663 -175.996,-189.929c0,-109.263 73.333,-189.929 175.996,-189.929c45.467,-0 82.862,15.4 108.529,43.266l0,-222.196l99,0Z" style="fill:#fff;fill-rule:nonzero;"/><path d="M2969.3,427.27l-154.729,0l-0,-89.466l409.191,-0l0,89.466l-155.462,0l-0,394.525l-99,0l-0,-394.525Z" style="fill:#fff;fill-rule:nonzero;"/><path d="M3327.13,326.807c-0,-35.2 27.862,-61.6 63.062,-61.6c35.2,-0 63.8,26.4 63.8,61.6c0,34.462 -28.6,60.866 -63.8,60.866c-35.2,0 -63.062,-26.404 -63.062,-60.866" style="fill:#ed1c24;fill-rule:nonzero;"/><rect x="3341.06" y="458.805" width="98.996" height="362.992" style="fill:#fff;"/><rect x="3596.98" y="271.809" width="98.992" height="549.988" style="fill:#fff;"/><path d="M4086.09,738.93l0,82.867c-20.537,5.133 -42.533,8.8 -68.2,8.8c-89.467,0 -145.204,-43.267 -145.204,-136.396l-0,-151.8l-57.196,0l0,-83.596l57.196,0l-0,-91.662l99,-0l-0,91.662l102.667,0l-0,83.596l-102.667,0l-0,142.996c-0,41.8 22.004,56.471 67.471,56.471c11.733,-0 27.862,-1.467 46.933,-2.938" style="fill:#fff;fill-rule:nonzero;"/></svg>